<svg width="128" height="128" viewBox="0 0 128 128" fill="none" xmlns="http://www.w3.org/2000/svg">
<rect width="128" height="128" rx="64" fill="#F9F9F9"/>
<path d="M25.1993 31.296C27.4313 31.296 29.3033 31.512 30.8153 31.944C32.3273 32.352 33.4553 33.024 34.1993 33.96C34.9673 34.896 35.3513 36.156 35.3513 37.74C35.3513 38.724 35.1833 39.612 34.8473 40.404C34.5113 41.196 34.0193 41.844 33.3713 42.348C32.7473 42.852 31.9673 43.188 31.0313 43.356V43.536C31.9913 43.704 32.8433 44.016 33.5873 44.472C34.3553 44.904 34.9553 45.54 35.3873 46.38C35.8433 47.196 36.0713 48.276 36.0713 49.62C36.0713 51.18 35.6993 52.512 34.9553 53.616C34.2113 54.72 33.1433 55.56 31.7513 56.136C30.3833 56.712 28.7513 57 26.8553 57H17.4593V31.296H25.1993ZM25.8113 41.772C27.6353 41.772 28.8833 41.484 29.5553 40.908C30.2513 40.332 30.5993 39.48 30.5993 38.352C30.5993 37.2 30.1913 36.372 29.3753 35.868C28.5593 35.364 27.2513 35.112 25.4513 35.112H22.0673V41.772H25.8113ZM22.0673 45.48V53.148H26.2433C28.1153 53.148 29.4113 52.788 30.1313 52.068C30.8753 51.348 31.2473 50.388 31.2473 49.188C31.2473 48.42 31.0913 47.76 30.7793 47.208C30.4673 46.656 29.9273 46.236 29.1593 45.948C28.3913 45.636 27.3473 45.48 26.0273 45.48H22.0673ZM45.4696 37.488V57H40.9336V37.488H45.4696ZM43.2016 29.964C43.8736 29.964 44.4616 30.144 44.9656 30.504C45.4696 30.84 45.7216 31.452 45.7216 32.34C45.7216 33.204 45.4696 33.828 44.9656 34.212C44.4616 34.572 43.8736 34.752 43.2016 34.752C42.5056 34.752 41.9056 34.572 41.4016 34.212C40.9216 33.828 40.6816 33.204 40.6816 32.34C40.6816 31.452 40.9216 30.84 41.4016 30.504C41.9056 30.144 42.5056 29.964 43.2016 29.964ZM57.8215 37.128C59.0455 37.128 60.1495 37.368 61.1335 37.848C62.1175 38.328 62.9455 39.048 63.6175 40.008H63.7975L64.2295 37.488H68.0095V57.144C68.0095 58.992 67.6615 60.54 66.9655 61.788C66.2695 63.06 65.2255 64.02 63.8335 64.668C62.4415 65.316 60.7015 65.64 58.6135 65.64C57.2215 65.64 55.9375 65.544 54.7615 65.352C53.5855 65.184 52.4695 64.884 51.4135 64.452V60.708C52.1575 61.02 52.9255 61.284 53.7175 61.5C54.5335 61.74 55.3735 61.92 56.2375 62.04C57.1015 62.16 57.9895 62.22 58.9015 62.22C60.3895 62.22 61.5175 61.8 62.2855 60.96C63.0775 60.12 63.4735 58.92 63.4735 57.36V56.856C63.4735 56.496 63.4855 56.076 63.5095 55.596C63.5575 55.116 63.5935 54.732 63.6175 54.444H63.4735C62.8015 55.452 61.9855 56.196 61.0255 56.676C60.0655 57.132 58.9615 57.36 57.7135 57.36C55.3375 57.36 53.4775 56.472 52.1335 54.696C50.7895 52.92 50.1175 50.448 50.1175 47.28C50.1175 45.144 50.4175 43.32 51.0175 41.808C51.6415 40.296 52.5295 39.144 53.6815 38.352C54.8335 37.536 56.2135 37.128 57.8215 37.128ZM59.0095 40.836C58.0975 40.836 57.3175 41.088 56.6695 41.592C56.0455 42.072 55.5655 42.792 55.2295 43.752C54.9175 44.712 54.7615 45.912 54.7615 47.352C54.7615 49.464 55.1215 51.06 55.8415 52.14C56.5615 53.22 57.6415 53.76 59.0815 53.76C59.8975 53.76 60.5935 53.664 61.1695 53.472C61.7455 53.256 62.2135 52.92 62.5735 52.464C62.9575 51.984 63.2455 51.384 63.4375 50.664C63.6295 49.92 63.7255 49.032 63.7255 48V47.316C63.7255 45.756 63.5575 44.508 63.2215 43.572C62.8855 42.612 62.3695 41.916 61.6735 41.484C61.0015 41.052 60.1135 40.836 59.0095 40.836Z" fill="#1D1B20"/>
<path d="M26.107 97L21.205 77.088H21.053C21.1036 77.5947 21.1543 78.2787 21.205 79.14C21.2556 80.0013 21.3063 80.9387 21.357 81.952C21.4076 82.94 21.433 83.9027 21.433 84.84V97H14.593V69.868H25.727L29.717 86.588H29.831L33.517 69.868H44.651V97H37.583V84.726C37.583 83.8647 37.5956 82.9527 37.621 81.99C37.6463 81.002 37.6716 80.0773 37.697 79.216C37.7476 78.3293 37.7983 77.6327 37.849 77.126H37.697L33.175 97H26.107ZM71.8533 86.208C71.8533 88.488 71.4353 90.464 70.5993 92.136C69.7633 93.808 68.5093 95.1 66.8373 96.012C65.1907 96.924 63.1133 97.38 60.6053 97.38C57.008 97.38 54.2593 96.43 52.3593 94.53C50.4593 92.6047 49.5093 89.8813 49.5093 86.36V69.868H57.2993V85.79C57.2993 87.7153 57.5907 89.1087 58.1733 89.97C58.756 90.8313 59.592 91.262 60.6813 91.262C61.492 91.262 62.1507 91.072 62.6573 90.692C63.164 90.312 63.5313 89.7167 63.7593 88.906C63.9873 88.0953 64.1013 87.044 64.1013 85.752V69.868H71.8533V86.208ZM88.7601 97H81.0081V75.872H75.1941V69.868H94.5741V75.872H88.7601V97ZM113.442 97H98.0519V69.868H113.442V75.758H105.804V80.014H112.872V85.904H105.804V91.034H113.442V97Z" fill="#4D00CB"/>
<path d="M104.056 47.3597C104.056 43.7363 101.968 40.6246 98.9378 39.1098V43.6339L103.953 48.6494C104.015 48.24 104.056 47.8101 104.056 47.3597ZM109.174 47.3597C109.174 49.284 108.764 51.0855 108.068 52.7642L111.159 55.8553C112.51 53.3169 113.268 50.4304 113.268 47.3597C113.268 38.598 107.147 31.2692 98.9378 29.4063V33.6234C104.854 35.384 109.174 40.8703 109.174 47.3597ZM79.0192 28.9355L76.4193 31.5354L86.1023 41.2183H76.4193V53.5011H84.6079L94.8436 63.7368V49.9596L103.544 58.6599C102.172 59.7244 100.637 60.5638 98.9378 61.0755V65.2927C101.763 64.658 104.322 63.3479 106.492 61.5873L110.668 65.784L113.268 63.1841L79.0192 28.9355ZM94.8436 30.9826L90.565 35.2611L94.8436 39.5397V30.9826Z" fill="#1D1B20"/>
</svg>
