<svg width="128" height="128" viewBox="0 0 128 128" fill="none" xmlns="http://www.w3.org/2000/svg">
<rect x="1.5" y="1.5" width="125" height="125" rx="30.5" fill="#1D1B20"/>
<path d="M24.1993 27.296C26.4313 27.296 28.3033 27.512 29.8153 27.944C31.3273 28.352 32.4553 29.024 33.1993 29.96C33.9673 30.896 34.3513 32.156 34.3513 33.74C34.3513 34.724 34.1833 35.612 33.8473 36.404C33.5113 37.196 33.0193 37.844 32.3713 38.348C31.7473 38.852 30.9673 39.188 30.0313 39.356V39.536C30.9913 39.704 31.8433 40.016 32.5873 40.472C33.3553 40.904 33.9553 41.54 34.3873 42.38C34.8433 43.196 35.0713 44.276 35.0713 45.62C35.0713 47.18 34.6993 48.512 33.9553 49.616C33.2113 50.72 32.1433 51.56 30.7513 52.136C29.3833 52.712 27.7513 53 25.8553 53H16.4593V27.296H24.1993ZM24.8113 37.772C26.6353 37.772 27.8833 37.484 28.5553 36.908C29.2513 36.332 29.5993 35.48 29.5993 34.352C29.5993 33.2 29.1913 32.372 28.3753 31.868C27.5593 31.364 26.2513 31.112 24.4513 31.112H21.0673V37.772H24.8113ZM21.0673 41.48V49.148H25.2433C27.1153 49.148 28.4113 48.788 29.1313 48.068C29.8753 47.348 30.2473 46.388 30.2473 45.188C30.2473 44.42 30.0913 43.76 29.7793 43.208C29.4673 42.656 28.9273 42.236 28.1593 41.948C27.3913 41.636 26.3473 41.48 25.0273 41.48H21.0673ZM44.4696 33.488V53H39.9336V33.488H44.4696ZM42.2016 25.964C42.8736 25.964 43.4616 26.144 43.9656 26.504C44.4696 26.84 44.7216 27.452 44.7216 28.34C44.7216 29.204 44.4696 29.828 43.9656 30.212C43.4616 30.572 42.8736 30.752 42.2016 30.752C41.5056 30.752 40.9056 30.572 40.4016 30.212C39.9216 29.828 39.6816 29.204 39.6816 28.34C39.6816 27.452 39.9216 26.84 40.4016 26.504C40.9056 26.144 41.5056 25.964 42.2016 25.964ZM56.8215 33.128C58.0455 33.128 59.1495 33.368 60.1335 33.848C61.1175 34.328 61.9455 35.048 62.6175 36.008H62.7975L63.2295 33.488H67.0095V53.144C67.0095 54.992 66.6615 56.54 65.9655 57.788C65.2695 59.06 64.2255 60.02 62.8335 60.668C61.4415 61.316 59.7015 61.64 57.6135 61.64C56.2215 61.64 54.9375 61.544 53.7615 61.352C52.5855 61.184 51.4695 60.884 50.4135 60.452V56.708C51.1575 57.02 51.9255 57.284 52.7175 57.5C53.5335 57.74 54.3735 57.92 55.2375 58.04C56.1015 58.16 56.9895 58.22 57.9015 58.22C59.3895 58.22 60.5175 57.8 61.2855 56.96C62.0775 56.12 62.4735 54.92 62.4735 53.36V52.856C62.4735 52.496 62.4855 52.076 62.5095 51.596C62.5575 51.116 62.5935 50.732 62.6175 50.444H62.4735C61.8015 51.452 60.9855 52.196 60.0255 52.676C59.0655 53.132 57.9615 53.36 56.7135 53.36C54.3375 53.36 52.4775 52.472 51.1335 50.696C49.7895 48.92 49.1175 46.448 49.1175 43.28C49.1175 41.144 49.4175 39.32 50.0175 37.808C50.6415 36.296 51.5295 35.144 52.6815 34.352C53.8335 33.536 55.2135 33.128 56.8215 33.128ZM58.0095 36.836C57.0975 36.836 56.3175 37.088 55.6695 37.592C55.0455 38.072 54.5655 38.792 54.2295 39.752C53.9175 40.712 53.7615 41.912 53.7615 43.352C53.7615 45.464 54.1215 47.06 54.8415 48.14C55.5615 49.22 56.6415 49.76 58.0815 49.76C58.8975 49.76 59.5935 49.664 60.1695 49.472C60.7455 49.256 61.2135 48.92 61.5735 48.464C61.9575 47.984 62.2455 47.384 62.4375 46.664C62.6295 45.92 62.7255 45.032 62.7255 44V43.316C62.7255 41.756 62.5575 40.508 62.2215 39.572C61.8855 38.612 61.3695 37.916 60.6735 37.484C60.0015 37.052 59.1135 36.836 58.0095 36.836Z" fill="#F9F9F9"/>
<path d="M24.6909 101L19.2729 78.992H19.1049C19.1609 79.552 19.2169 80.308 19.2729 81.26C19.3289 82.212 19.3849 83.248 19.4409 84.368C19.4969 85.46 19.5249 86.524 19.5249 87.56V101H11.9649V71.012H24.2709L28.6809 89.492H28.8069L32.8809 71.012H45.1869V101H37.3749V87.434C37.3749 86.482 37.3889 85.474 37.4169 84.41C37.4449 83.318 37.4729 82.296 37.5009 81.344C37.5569 80.364 37.6129 79.594 37.6689 79.034H37.5009L32.5029 101H24.6909ZM73.5726 89.072C73.5726 91.592 73.1106 93.776 72.1866 95.624C71.2626 97.472 69.8766 98.9 68.0286 99.908C66.2086 100.916 63.9126 101.42 61.1406 101.42C57.1646 101.42 54.1266 100.37 52.0266 98.27C49.9266 96.142 48.8766 93.132 48.8766 89.24V71.012H57.4866V88.61C57.4866 90.738 57.8086 92.278 58.4526 93.23C59.0966 94.182 60.0206 94.658 61.2246 94.658C62.1206 94.658 62.8486 94.448 63.4086 94.028C63.9686 93.608 64.3746 92.95 64.6266 92.054C64.8786 91.158 65.0046 89.996 65.0046 88.568V71.012H73.5726V89.072ZM90.579 101H82.011V77.648H75.585V71.012H97.005V77.648H90.579V101ZM116.179 101H99.169V71.012H116.179V77.522H107.737V82.226H115.549V88.736H107.737V94.406H116.179V101Z" fill="#4D00CB"/>
<path d="M103.056 43.3597C103.056 39.7363 100.968 36.6246 97.9378 35.1098V39.6339L102.953 44.6494C103.015 44.24 103.056 43.8101 103.056 43.3597ZM108.174 43.3597C108.174 45.284 107.764 47.0855 107.068 48.7642L110.159 51.8553C111.51 49.3169 112.268 46.4304 112.268 43.3597C112.268 34.598 106.147 27.2692 97.9378 25.4063V29.6234C103.854 31.384 108.174 36.8703 108.174 43.3597ZM78.0192 24.9355L75.4193 27.5354L85.1023 37.2183H75.4193V49.5011H83.6079L93.8436 59.7368V45.9596L102.544 54.6599C101.172 55.7244 99.637 56.5638 97.9378 57.0755V61.2927C100.763 60.658 103.322 59.3479 105.492 57.5873L109.668 61.784L112.268 59.1841L78.0192 24.9355ZM93.8436 26.9826L89.565 31.2611L93.8436 35.5397V26.9826Z" fill="#F9F9F9"/>
<rect x="1.5" y="1.5" width="125" height="125" rx="30.5" stroke="#4D00CB" stroke-width="3"/>
</svg>
